<?xml version="1.0" encoding="UTF-8" standalone="no"?> <svg xmlns="http://www.w3.org/2000/svg" viewBox="0 0 64 64"><defs><style>.cls-1{fill:#fff;}.cls-1,.cls-2,.cls-4{stroke:#54596e;}.cls-1,.cls-2,.cls-4,.cls-6{stroke-linecap:round;stroke-linejoin:round;stroke-width:2px;}.cls-2{fill:none;}.cls-3,.cls-5{fill:#54596e;}.cls-4,.cls-6{fill:#ffd578;}.cls-5{opacity:0.2;}.cls-6{stroke:#fff;}</style></defs><title>egg</title><g id="egg"><path class="cls-1" d="M61,26A24,24,0,0,0,37,2C23.75,2,12,8,6,21c-2.51,5.44-5,27,4,35,13.74,12.21,13-7,27-6C50.22,50.94,61,39.25,61,26Z"/><path class="cls-2" d="M24.1,47A7,7,0,0,0,19,45.07a7,7,0,0,0-5.1,1.9"/><circle class="cls-3" cx="28" cy="39" r="2"/><circle class="cls-3" cx="10" cy="39" r="2"/><circle class="cls-4" cx="40" cy="23" r="12"/><path class="cls-5" d="M40,30a12,12,0,0,1-11.74-9.5,12,12,0,1,0,23.47,0A12,12,0,0,1,40,30Z"/><path class="cls-6" d="M40,14a9,9,0,0,0-9,9"/></g></svg>