<svg fill="none" height="47" viewBox="0 0 35 47" width="35" xmlns="http://www.w3.org/2000/svg"><path d="m4 27-2 .5v1 4c0 .5.5 2.5 1 4s1.5 1.5 1.5 2 2.5 2.5 3 3.5 3.5 3 4 3.5 2.5 0 4.5 0 6.5-1 7.5-1c.8 0 3.3333-1.6667 4.5-2.5l4.5-6 1-5-1-4h-4l-.5 1-1.5 1.5-1.5.5h-1c-.6667-.3333-2.2-1.2-3-2l-1-1-1.5 1-1 .5h-1l-1.6875-1h-.3125l-1.5 1-2 1.5h-1.5-1.5c-.33333-.5-1-1.6-1-2s-.66667-.8333-1-1z" fill="#ffe773"/><path d="m32.9503 15.809c-4.8583-15.7693891-14.3643-15.8389346-15.4517-15.80416196-1.0874-.05215894-10.59339.03477286-15.45163 15.80416196-3.19205 10.3448-2.630811 19.4726 1.54341 25.0536 2.99913 4.0163 7.82232 6.1374 13.92582 6.1374 6.1034 0 10.9266-2.1211 13.9257-6.1374 4.1392-5.581 4.7004-14.7088 1.5084-25.0536zm-15.6972-13.43963h.1578.0877.0877c.3508-.01738 8.6291-.34772 13.1015 14.13503.5963 1.9299 1.0523 3.825 1.3855 5.6506h-3.4727c-.3507-1.5996-1.0698-2.6427-2.0871-2.9731-2.5957-.8519-5.437 1.8256-6.3665 2.7818-.6139-.991-1.561-1.6343-2.6308-1.6343-1.105 0-2.0696.6955-2.6835 1.756-1.14-1.0605-4.5776-3.9988-6.6647-2.747-.77171.452-1.31541 1.5474-1.63111 2.834h-3.5779c.3157-1.8256.7717-3.7033 1.38556-5.6506 4.15668-13.61345 11.71585-14.15243 12.90855-14.15243zm11.5054 20.95053h3.4902c.1579 1.0258.2631 2.0168.3157 2.9904h-3.8936c.1403-.9736.1754-2.0342.0877-2.9904zm-7.8924-.4347c.9646-1.0606 3.42-3.1991 5.244-2.6079.7191.2434 1.2628 1.3387 1.4382 2.9556.2982 2.7123-.456 5.4072-1.3154 5.9288-1.1926.7128-4.0164-1.4257-5.3668-2.7297zm-3.385-1.3909c1.1751 0 2.1748 1.4605 2.1748 3.1991s-.9997 3.1991-2.1748 3.1991-2.1748-1.4605-2.1748-3.1991.9997-3.1991 2.1748-3.1991zm-3.3675 5.1116c-.9646 1.0605-3.42 3.1991-5.24405 2.6079-.71909-.2434-1.26279-1.3387-1.43818-2.9557-.29816-2.7122.45601-5.4071 1.31541-5.9287.15784-.1043.35077-.1391.57877-.1391 1.36805 0 3.61295 1.756 4.78805 2.8688zm-7.87487-.2956h-3.82344c.05261-.9736.15784-1.9646.31569-2.9904h3.54283c-.12277.991-.14031 2.0515-.03508 2.9904zm23.25637 13.144c-2.5606 3.4425-6.6121 5.1812-11.9965 5.1812-5.4019 0-9.43583-1.7387-11.99649-5.1812-2.19235-2.9382-3.24467-7.0762-3.1219-11.9617h4.06899c.36831 1.5126 1.06986 2.5036 2.05203 2.8339.35078.1217.70155.1739 1.05233.1739 2.29754 0 4.59514-2.1907 5.34934-2.9904.6138.9562 1.5434 1.5821 2.5782 1.5821 1.0698 0 2.0345-.6607 2.6483-1.6865.912.852 3.4727 3.0948 5.5247 3.0948.421 0 .8068-.0869 1.1751-.3129.7367-.4347 1.2628-1.4605 1.5961-2.6775h4.1742c.1403 4.8681-.912 9.0061-3.1044 11.9443z" fill="#ff6d7a"/><g fill="#9d66d6"><circle cx="8" cy="16" r="1"/><circle cx="4" cy="31" r="1"/><circle cx="5" cy="35" r="1"/><circle cx="31" cy="31" r="1"/><circle cx="30" cy="35" r="1"/><circle cx="14" cy="14" r="2"/><circle cx="22" cy="11" r="3"/></g><circle cx="18" cy="40" r="2.5" stroke="#9d66d6"/></svg>